{
  "accessors": [
    {
      "bufferView": 2,
      "componentType": 5126,
      "count": 3096,
      "max": [
        1.5014936923980713,
        5.0209941864013672,
        1.3375339508056641
      ],
      "min": [
        -1.5014936923980713,
        -5.0209941864013672,
        -1.3375339508056641
      ],
      "type": "VEC3"
    },
    {
      "bufferView": 2,
      "byteOffset": 37152,
      "componentType": 5126,
      "count": 3096,
      "max": [
        1,
        1,
        1
      ],
      "min": [
        -1,
        -1,
        -1
      ],
      "type": "VEC3"
    },
    {
      "bufferView": 3,
      "componentType": 5126,
      "count": 3096,
      "max": [
        1,
        0.4120323657989502,
        1,
        1
      ],
      "min": [
        -1,
        -0.4120323657989502,
        -1,
        -1
      ],
      "type": "VEC4"
    },
    {
      "bufferView": 1,
      "componentType": 5126,
      "count": 3096,
      "max": [
        0.875,
        1
      ],
      "min": [
        0.125,
        0
      ],
      "type": "VEC2"
    },
    {
      "bufferView": 0,
      "componentType": 5125,
      "count": 5112,
      "max": [
        3095
      ],
      "min": [
        0
      ],
      "type": "SCALAR"
    },
    {
      "bufferView": 2,
      "byteOffset": 74304,
      "componentType": 5126,
      "count": 312,
      "max": [
        1.0725526809692383,
        5.0209941864013672,
        1.4513297080993652
      ],
      "min": [
        -1.0725526809692383,
        -5.0209941864013672,
        -1.4513297080993652
      ],
      "type": "VEC3"
    },
    {
      "bufferView": 2,
      "byteOffset": 78048,
      "componentType": 5126,
      "count": 312,
      "max": [
        1,
        1,
        1
      ],
      "min": [
        -1,
        -1,
        -1
      ],
      "type": "VEC3"
    },
    {
      "bufferView": 3,
      "byteOffset": 49536,
      "componentType": 5126,
      "count": 312,
      "max": [
        0,
        0,
        1,
        1
      ],
      "min": [
        0,
        0,
        -1,
        -1
      ],
      "type": "VEC4"
    },
    {
      "bufferView": 1,
      "byteOffset": 24768,
      "componentType": 5126,
      "count": 312,
      "max": [
        0.625,
        1
      ],
      "min": [
        0.125,
        0.25
      ],
      "type": "VEC2"
    },
    {
      "bufferView": 0,
      "byteOffset": 20448,
      "componentType": 5125,
      "count": 528,
      "max": [
        311
      ],
      "min": [
        0
      ],
      "type": "SCALAR"
    },
    {
      "bufferView": 2,
      "byteOffset": 81792,
      "componentType": 5126,
      "count": 64,
      "max": [
        1.1832948923110962,
        1.0383850336074829,
        1.0633659362792969
      ],
      "min": [
        -1.1832948923110962,
        -1.0383850336074829,
        -1.0633659362792969
      ],
      "type": "VEC3"
    },
    {
      "bufferView": 2,
      "byteOffset": 82560,
      "componentType": 5126,
      "count": 64,
      "max": [
        1,
        0,
        0
      ],
      "min": [
        -1,
        0,
        0
      ],
      "type": "VEC3"
    },
    {
      "bufferView": 3,
      "byteOffset": 54528,
      "componentType": 5126,
      "count": 64,
      "max": [
        0,
        5.230021429269982e-07,
        1,
        1
      ],
      "min": [
        0,
        -5.230021429269982e-07,
        -1,
        -1
      ],
      "type": "VEC4"
    },
    {
      "bufferView": 1,
      "byteOffset": 27264,
      "componentType": 5126,
      "count": 64,
      "max": [
        0.61214691400527954,
        0.73458003997802734
      ],
      "min": [
        0.14067792892456055,
        0.51541996002197266
      ],
      "type": "VEC2"
    },
    {
      "bufferView": 0,
      "byteOffset": 22560,
      "componentType": 5125,
      "count": 96,
      "max": [
        63
      ],
      "min": [
        0
      ],
      "type": "SCALAR"
    },
    {
      "bufferView": 2,
      "byteOffset": 83328,
      "componentType": 5126,
      "count": 48,
      "max": [
        0.98078525066375732,
        0.9807855486869812,
        1
      ],
      "min": [
        -0.98078542947769165,
        -0.9807853102684021,
        -1
      ],
      "type": "VEC3"
    },
    {
      "bufferView": 2,
      "byteOffset": 83904,
      "componentType": 5126,
      "count": 48,
      "max": [
        0.95438480377197266,
        0.95438456535339355,
        1
      ],
      "min": [
        -0.95438450574874878,
        -0.95438462495803833,
        -1
      ],
      "type": "VEC3"
    },
    {
      "bufferView": 3,
      "byteOffset": 55552,
      "componentType": 5126,
      "count": 48,
      "max": [
        1,
        0.9807853102684021,
        1.8435262205684921e-08,
        1
      ],
      "min": [
        -0.83147048950195312,
        -0.980785071849823,
        -3.265184744805083e-08,
        -1
      ],
      "type": "VEC4"
    },
    {
      "bufferView": 1,
      "byteOffset": 27776,
      "componentType": 5126,
      "count": 48,
      "max": [
        0.98538845777511597,
        1
      ],
      "min": [
        0.014611497521400452,
        0.014611527323722839
      ],
      "type": "VEC2"
    },
    {
      "bufferView": 0,
      "byteOffset": 22944,
      "componentType": 5125,
      "count": 84,
      "max": [
        47
      ],
      "min": [
        0
      ],
      "type": "SCALAR"
    },
    {
      "bufferView": 2,
      "byteOffset": 84480,
      "componentType": 5126,
      "count": 1984,
      "max": [
        1.1112937927246094,
        1.1112931966781616,
        -0.95186948776245117
      ],
      "min": [
        -1.1112930774688721,
        -1.111294150352478,
        -1.1362472772598267
      ],
      "type": "VEC3"
    },
    {
      "bufferView": 2,
      "byteOffset": 108288,
      "componentType": 5126,
      "count": 1984,
      "max": [
        0.64291417598724365,
        0.64291733503341675,
        0.99996638298034668
      ],
      "min": [
        -0.6429142951965332,
        -0.64291322231292725,
        -0.99996638298034668
      ],
      "type": "VEC3"
    },
    {
      "bufferView": 3,
      "byteOffset": 56320,
      "componentType": 5126,
      "count": 1984,
      "max": [
        0.99518489837646484,
        0.99518483877182007,
        1.9683584469021298e-06,
        1
      ],
      "min": [
        -0.99518531560897827,
        -0.99518567323684692,
        -1.607749823051563e-06,
        1
      ],
      "type": "VEC4"
    },
    {
      "bufferView": 1,
      "byteOffset": 28160,
      "componentType": 5126,
      "count": 1984,
      "max": [
        1.0000002384185791,
        1
      ],
      "min": [
        0,
        0
      ],
      "type": "VEC2"
    },
    {
      "bufferView": 0,
      "byteOffset": 23280,
      "componentType": 5125,
      "count": 2880,
      "max": [
        1983
      ],
      "min": [
        0
      ],
      "type": "SCALAR"
    },
    {
      "bufferView": 2,
      "byteOffset": 132096,
      "componentType": 5126,
      "count": 6912,
      "max": [
        1.6038615703582764,
        1.6038616895675659,
        -0.5585705041885376
      ],
      "min": [
        -1.6038615703582764,
        -1.6038614511489868,
        -0.88122403621673584
      ],
      "type": "VEC3"
    },
    {
      "bufferView": 2,
      "byteOffset": 215040,
      "componentType": 5126,
      "count": 6912,
      "max": [
        0.29569539427757263,
        0.29569557309150696,
        0.99975210428237915
      ],
      "min": [
        -0.29569524526596069,
        -0.29569557309150696,
        -0.99975210428237915
      ],
      "type": "VEC3"
    },
    {
      "bufferView": 3,
      "byteOffset": 88064,
      "componentType": 5126,
      "count": 6912,
      "max": [
        0.99785906076431274,
        0.99785906076431274,
        1.4656231996923452e-06,
        1
      ],
      "min": [
        -0.99785906076431274,
        -0.99785906076431274,
        -2.339916818527854e-06,
        1
      ],
      "type": "VEC4"
    },
    {
      "bufferView": 1,
      "byteOffset": 44032,
      "componentType": 5126,
      "count": 6912,
      "max": [
        1,
        1
      ],
      "min": [
        8.8817841970012523e-16,
        2.2204460492503131e-16
      ],
      "type": "VEC2"
    },
    {
      "bufferView": 0,
      "byteOffset": 34800,
      "componentType": 5125,
      "count": 10368,
      "max": [
        6911
      ],
      "min": [
        0
      ],
      "type": "SCALAR"
    },
    {
      "bufferView": 2,
      "byteOffset": 297984,
      "componentType": 5126,
      "count": 96,
      "max": [
        1,
        1,
        1
      ],
      "min": [
        -1,
        -1,
        -1
      ],
      "type": "VEC3"
    },
    {
      "bufferView": 2,
      "byteOffset": 299136,
      "componentType": 5126,
      "count": 96,
      "max": [
        1,
        1,
        1
      ],
      "min": [
        -1,
        -1,
        -1
      ],
      "type": "VEC3"
    },
    {
      "bufferView": 3,
      "byteOffset": 198656,
      "componentType": 5126,
      "count": 96,
      "max": [
        1,
        1.1776120345530217e-07,
        1,
        1
      ],
      "min": [
        -1,
        -1.6474961057610926e-06,
        0,
        1
      ],
      "type": "VEC4"
    },
    {
      "bufferView": 1,
      "byteOffset": 99328,
      "componentType": 5126,
      "count": 96,
      "max": [
        0.875,
        1
      ],
      "min": [
        0.125,
        0
      ],
      "type": "VEC2"
    },
    {
      "bufferView": 0,
      "byteOffset": 76272,
      "componentType": 5125,
      "count": 216,
      "max": [
        95
      ],
      "min": [
        0
      ],
      "type": "SCALAR"
    },
    {
      "bufferView": 2,
      "byteOffset": 300288,
      "componentType": 5126,
      "count": 8,
      "max": [
        0.82677668333053589,
        0.70769232511520386,
        0.67414695024490356
      ],
      "min": [
        -0.83723491430282593,
        -0.70932894945144653,
        -0.70439136028289795
      ],
      "type": "VEC3"
    },
    {
      "bufferView": 2,
      "byteOffset": 300384,
      "componentType": 5126,
      "count": 8,
      "max": [
        1,
        0,
        0
      ],
      "min": [
        -1,
        0,
        0
      ],
      "type": "VEC3"
    },
    {
      "bufferView": 3,
      "byteOffset": 200192,
      "componentType": 5126,
      "count": 8,
      "max": [
        0,
        0,
        1,
        1
      ],
      "min": [
        0,
        0,
        1,
        1
      ],
      "type": "VEC4"
    },
    {
      "bufferView": 1,
      "byteOffset": 100096,
      "componentType": 5126,
      "count": 8,
      "max": [
        0.58426833152770996,
        0.71366608142852783
      ],
      "min": [
        0.41195106506347656,
        0.036333881318569183
      ],
      "type": "VEC2"
    },
    {
      "bufferView": 0,
      "byteOffset": 77136,
      "componentType": 5125,
      "count": 12,
      "max": [
        7
      ],
      "min": [
        0
      ],
      "type": "SCALAR"
    }
  ],
  "asset": {
    "extras": {
      "author": "MarZamo (https://sketchfab.com/MarZamo)",
      "license": "CC-BY-4.0 (http://creativecommons.org/licenses/by/4.0/)",
      "source": "https://sketchfab.com/3d-models/hammer-753f9af2cfa7429491b2cf0d6edf06da",
      "title": "Hammer"
    },
    "generator": "Sketchfab-4.47.0",
    "version": "2.0"
  },
  "bufferViews": [
    {
      "buffer": 0,
      "byteLength": 77184,
      "byteOffset": 0,
      "name": "floatBufferViews",
      "target": 34963
    },
    {
      "buffer": 0,
      "byteLength": 100160,
      "byteOffset": 77184,
      "byteStride": 8,
      "name": "floatBufferViews",
      "target": 34962
    },
    {
      "buffer": 0,
      "byteLength": 300480,
      "byteOffset": 177344,
      "byteStride": 12,
      "name": "floatBufferViews",
      "target": 34962
    },
    {
      "buffer": 0,
      "byteLength": 200320,
      "byteOffset": 477824,
      "byteStride": 16,
      "name": "floatBufferViews",
      "target": 34962
    }
  ],
  "buffers": [
    {
      "byteLength": 678144,
      "uri": "scene.bin"
    }
  ],
  "materials": [
    {
      "doubleSided": true,
      "emissiveFactor": [
        0,
        0,
        0
      ],
      "name": "Material",
      "pbrMetallicRoughness": {
        "baseColorFactor": [
          1,
          0.021156999999999999,
          0.044451900000000003,
          1
        ],
        "metallicFactor": 0,
        "roughnessFactor": 0.9483600418
      }
    },
    {
      "doubleSided": true,
      "emissiveFactor": [
        0,
        0,
        0
      ],
      "name": "Material.005",
      "pbrMetallicRoughness": {
        "baseColorFactor": [
          0.21651699999999999,
          0,
          0.00049095499999999995,
          1
        ],
        "metallicFactor": 0,
        "roughnessFactor": 0.98969911430000002
      }
    },
    {
      "doubleSided": true,
      "emissiveFactor": [
        1,
        1,
        0.074187500000000003
      ],
      "name": "Material.004",
      "pbrMetallicRoughness": {
        "baseColorFactor": [
          0.80000000000000004,
          0.75834400000000002,
          0.00741875,
          1
        ],
        "metallicFactor": 0,
        "roughnessFactor": 0.19560606990000001
      }
    },
    {
      "doubleSided": true,
      "emissiveFactor": [
        0,
        0,
        0
      ],
      "name": "Material.003",
      "pbrMetallicRoughness": {
        "baseColorFactor": [
          0.55398000000000003,
          0.63509599999999999,
          0.62781699999999996,
          1
        ],
        "metallicFactor": 0,
        "roughnessFactor": 0.86196189010000002
      }
    },
    {
      "doubleSided": true,
      "emissiveFactor": [
        0,
        0,
        0
      ],
      "name": "Material.006",
      "pbrMetallicRoughness": {
        "baseColorFactor": [
          0.80000000000000004,
          0.0162506,
          0,
          1
        ],
        "metallicFactor": 0,
        "roughnessFactor": 0.95937010170000003
      }
    },
    {
      "doubleSided": true,
      "emissiveFactor": [
        0,
        0,
        0
      ],
      "name": "Material.007",
      "pbrMetallicRoughness": {
        "baseColorFactor": [
          0.80000000000000004,
          0.14635500000000001,
          0,
          1
        ],
        "metallicFactor": 1,
        "roughnessFactor": 0.4501515244
      }
    },
    {
      "doubleSided": true,
      "emissiveFactor": [
        0,
        0,
        0
      ],
      "name": "Material.001",
      "pbrMetallicRoughness": {
        "baseColorFactor": [
          1,
          0.045402400000000002,
          0.0271104,
          1
        ],
        "metallicFactor": 0,
        "roughnessFactor": 0.94476259890000003
      }
    },
    {
      "doubleSided": true,
      "emissiveFactor": [
        1,
        0.40887100000000004,
        1
      ],
      "name": "Material.002",
      "pbrMetallicRoughness": {
        "baseColorFactor": [
          0.91693800000000003,
          0.040887100000000003,
          0.28038200000000002,
          1
        ],
        "metallicFactor": 0,
        "roughnessFactor": 0.054655550599999998
      }
    }
  ],
  "meshes": [
    {
      "name": "Cube_Material_0",
      "primitives": [
        {
          "attributes": {
            "NORMAL": 1,
            "POSITION": 0,
            "TANGENT": 2,
            "TEXCOORD_0": 3
          },
          "indices": 4,
          "material": 0,
          "mode": 4
        }
      ]
    },
    {
      "name": "Cube_Material.005_0",
      "primitives": [
        {
          "attributes": {
            "NORMAL": 6,
            "POSITION": 5,
            "TANGENT": 7,
            "TEXCOORD_0": 8
          },
          "indices": 9,
          "material": 1,
          "mode": 4
        }
      ]
    },
    {
      "name": "Cube_Material.004_0",
      "primitives": [
        {
          "attributes": {
            "NORMAL": 11,
            "POSITION": 10,
            "TANGENT": 12,
            "TEXCOORD_0": 13
          },
          "indices": 14,
          "material": 2,
          "mode": 4
        }
      ]
    },
    {
      "name": "Cylinder_Material.003_0",
      "primitives": [
        {
          "attributes": {
            "NORMAL": 16,
            "POSITION": 15,
            "TANGENT": 17,
            "TEXCOORD_0": 18
          },
          "indices": 19,
          "material": 3,
          "mode": 4
        }
      ]
    },
    {
      "name": "Cylinder_Material.006_0",
      "primitives": [
        {
          "attributes": {
            "NORMAL": 21,
            "POSITION": 20,
            "TANGENT": 22,
            "TEXCOORD_0": 23
          },
          "indices": 24,
          "material": 4,
          "mode": 4
        }
      ]
    },
    {
      "name": "Cylinder_Material.007_0",
      "primitives": [
        {
          "attributes": {
            "NORMAL": 26,
            "POSITION": 25,
            "TANGENT": 27,
            "TEXCOORD_0": 28
          },
          "indices": 29,
          "material": 5,
          "mode": 4
        }
      ]
    },
    {
      "name": "Cube.001_Material.001_0",
      "primitives": [
        {
          "attributes": {
            "NORMAL": 31,
            "POSITION": 30,
            "TANGENT": 32,
            "TEXCOORD_0": 33
          },
          "indices": 34,
          "material": 6,
          "mode": 4
        }
      ]
    },
    {
      "name": "Cube.001_Material.002_0",
      "primitives": [
        {
          "attributes": {
            "NORMAL": 36,
            "POSITION": 35,
            "TANGENT": 37,
            "TEXCOORD_0": 38
          },
          "indices": 39,
          "material": 7,
          "mode": 4
        }
      ]
    }
  ],
  "nodes": [
    {
      "children": [
        1
      ],
      "name": "RootNode (gltf orientation matrix)",
      "rotation": [
        -0.70710678118654746,
        -0,
        -0,
        0.70710678118654757
      ]
    },
    {
      "children": [
        2
      ],
      "name": "RootNode (model correction matrix)"
    },
    {
      "children": [
        3
      ],
      "matrix": [
        1,
        0,
        0,
        0,
        0,
        0,
        1,
        0,
        0,
        -1,
        0,
        0,
        0,
        0,
        0,
        1
      ],
      "name": "7d05debda6b14731b13824a8bc2c5ba4.fbx"
    },
    {
      "children": [
        4,
        8,
        11,
        13,
        17
      ],
      "name": "RootNode"
    },
    {
      "children": [
        5,
        6,
        7
      ],
      "matrix": [
        100,
        0,
        0,
        0,
        0,
        -1.4330513997022418e-05,
        -87.960067749022272,
        0,
        0,
        99.999999999998678,
        -1.6292067939183141e-05,
        0,
        0,
        492.20452880859375,
        0,
        1
      ],
      "name": "Cube"
    },
    {
      "mesh": 0,
      "name": "Cube_Material_0"
    },
    {
      "mesh": 1,
      "name": "Cube_Material.005_0"
    },
    {
      "mesh": 2,
      "name": "Cube_Material.004_0"
    },
    {
      "children": [
        9
      ],
      "matrix": [
        -29.08647719990347,
        -5.5189064575668629,
        -95.517119101714371,
        0,
        56.639309131094492,
        79.467234285632031,
        -21.839123978419661,
        0,
        77.110087759933748,
        -60.452463565620441,
        -19.988346967737169,
        0,
        407.62454223632812,
        590.38623046875,
        -100.54539489746094,
        1
      ],
      "name": "Light"
    },
    {
      "children": [
        10
      ],
      "matrix": [
        1,
        0,
        0,
        0,
        0,
        2.2204460492503131e-16,
        1,
        0,
        0,
        -1,
        2.2204460492503131e-16,
        0,
        0,
        0,
        0,
        1
      ],
      "name": ""
    },
    {
      "name": ""
    },
    {
      "children": [
        12
      ],
      "matrix": [
        -65.155832803290963,
        -44.527135765708579,
        -61.417030473735487,
        0,
        -32.40134137821245,
        89.539574512336159,
        -30.542088974418615,
        0,
        68.592054721299746,
        -1.0718647115348782e-05,
        -72.767633623962695,
        0,
        735.88916015625,
        495.8309326171875,
        692.5791015625,
        1
      ],
      "name": "Camera"
    },
    {
      "name": ""
    },
    {
      "children": [
        14,
        15,
        16
      ],
      "matrix": [
        41.682167053222656,
        0,
        0,
        0,
        0,
        -6.7908869748348467e-06,
        -41.682167053222102,
        0,
        0,
        502.45886230468085,
        -8.1860939213126359e-05,
        0,
        0,
        -124.42858123779297,
        0,
        1
      ],
      "name": "Cylinder"
    },
    {
      "mesh": 3,
      "name": "Cylinder_Material.003_0"
    },
    {
      "mesh": 4,
      "name": "Cylinder_Material.006_0"
    },
    {
      "mesh": 5,
      "name": "Cylinder_Material.007_0"
    },
    {
      "children": [
        18,
        19
      ],
      "matrix": [
        69.07159423828125,
        0,
        0,
        0,
        0,
        -1.1253191059977689e-05,
        -69.071594238280341,
        0,
        0,
        40.074176788329545,
        -6.5289121084230969e-06,
        0,
        0,
        -318.51303100585938,
        0,
        1
      ],
      "name": "Cube.001"
    },
    {
      "mesh": 6,
      "name": "Cube.001_Material.001_0"
    },
    {
      "mesh": 7,
      "name": "Cube.001_Material.002_0"
    }
  ],
  "scene": 0,
  "scenes": [
    {
      "name": "OSG_Scene",
      "nodes": [
        0
      ]
    }
  ]
}

