{
  "accessors": [
    {
      "bufferView": 2,
      "componentType": 5126,
      "count": 39427,
      "max": [
        9.6332616806030273,
        7.1114401817321777,
        8.1017494201660156
      ],
      "min": [
        -9.6332616806030273,
        -7.1114401817321777,
        -8.1017494201660156
      ],
      "type": "VEC3"
    },
    {
      "bufferView": 2,
      "byteOffset": 473124,
      "componentType": 5126,
      "count": 39427,
      "max": [
        0.99999260902404785,
        0.99996352195739746,
        0.99999797344207764
      ],
      "min": [
        -0.98530024290084839,
        -0.99108600616455078,
        -0.99721235036849976
      ],
      "type": "VEC3"
    },
    {
      "bufferView": 3,
      "componentType": 5126,
      "count": 39427,
      "max": [
        0.99999374151229858,
        0.99997830390930176,
        0.99997943639755249,
        1
      ],
      "min": [
        -0.99933332204818726,
        -0.99800562858581543,
        -0.99953365325927734,
        -1
      ],
      "type": "VEC4"
    },
    {
      "bufferView": 1,
      "componentType": 5126,
      "count": 39427,
      "max": [
        0.99658197164535522,
        1.0000580549240112
      ],
      "min": [
        0.0039059999398887157,
        0.0031810000073164701
      ],
      "type": "VEC2"
    },
    {
      "bufferView": 0,
      "componentType": 5125,
      "count": 211212,
      "max": [
        39426
      ],
      "min": [
        0
      ],
      "type": "SCALAR"
    }
  ],
  "asset": {
    "extras": {
      "author": "Mark Burginger architect (https://sketchfab.com/toy_meister)",
      "license": "CC-BY-NC-4.0 (http://creativecommons.org/licenses/by-nc/4.0/)",
      "source": "https://sketchfab.com/models/ec8286fe454a4912805fbc2d80e3e739",
      "title": "El Capitan"
    },
    "generator": "Sketchfab-3.18.7",
    "version": "2.0"
  },
  "bufferViews": [
    {
      "buffer": 0,
      "byteLength": 844848,
      "byteOffset": 0,
      "name": "floatBufferViews",
      "target": 34963
    },
    {
      "buffer": 0,
      "byteLength": 315416,
      "byteOffset": 844848,
      "byteStride": 8,
      "name": "floatBufferViews",
      "target": 34962
    },
    {
      "buffer": 0,
      "byteLength": 946248,
      "byteOffset": 1160264,
      "byteStride": 12,
      "name": "floatBufferViews",
      "target": 34962
    },
    {
      "buffer": 0,
      "byteLength": 630832,
      "byteOffset": 2106512,
      "byteStride": 16,
      "name": "floatBufferViews",
      "target": 34962
    }
  ],
  "buffers": [
    {
      "byteLength": 2737344,
      "uri": "scene.bin"
    }
  ],
  "images": [
    {
      "uri": "textures/model_baseColor.jpeg"
    }
  ],
  "materials": [
    {
      "doubleSided": true,
      "emissiveFactor": [
        0,
        0,
        0
      ],
      "name": "model",
      "pbrMetallicRoughness": {
        "baseColorFactor": [
          1,
          1,
          1,
          1
        ],
        "baseColorTexture": {
          "index": 0,
          "texCoord": 0
        },
        "metallicFactor": 0,
        "roughnessFactor": 1
      }
    }
  ],
  "meshes": [
    {
      "primitives": [
        {
          "attributes": {
            "NORMAL": 1,
            "POSITION": 0,
            "TANGENT": 2,
            "TEXCOORD_0": 3
          },
          "indices": 4,
          "material": 0,
          "mode": 4
        }
      ]
    }
  ],
  "nodes": [
    {
      "children": [
        1
      ],
      "name": "RootNode (gltf orientation matrix)",
      "rotation": [
        -0.70710678118654746,
        -0,
        -0,
        0.70710678118654757
      ]
    },
    {
      "children": [
        2
      ],
      "matrix": [
        0.9994933009147644,
        -0.031830321997404099,
        -9.5508898084517568e-05,
        0,
        0.013869142159819603,
        0.43279558420181274,
        0.90138536691665649,
        0,
        -0.028650052845478058,
        -0.90092998743057251,
        0.43301776051521301,
        0,
        1.7780000405309693e-07,
        4.0520999391446821e-06,
        4.4790999709221069e-06,
        1
      ],
      "name": "RootNode (model correction matrix)"
    },
    {
      "children": [
        3
      ],
      "name": "model.obj.cleaner.materialmerger.gles"
    },
    {
      "mesh": 0,
      "name": ""
    }
  ],
  "samplers": [
    {
      "magFilter": 9729,
      "minFilter": 9987,
      "wrapS": 10497,
      "wrapT": 10497
    }
  ],
  "scene": 0,
  "scenes": [
    {
      "name": "OSG_Scene",
      "nodes": [
        0
      ]
    }
  ],
  "textures": [
    {
      "sampler": 0,
      "source": 0
    }
  ]
}

